Poster: 
http://imgh.us/Masters29546.jpg


Info:

Format : Matroska
Format version : Version 2
File size : 747 MiB
Duration : 2h 24mn
Overall bit rate : 725 Kbps
Encoded date : UTC 2012-07-08 13:37:37
Writing application : mkvmerge v5.6.0 ('Kenya Kane') built on May 27 2012 16:44:04
Writing library : libebml v1.2.3 + libmatroska v1.3.0

Video
ID : 1
Format : AVC
Format/Info : Advanced Video Codec
Format profile : High@L2.1
Format settings, CABAC : Yes
Format settings, ReFrames : 4 frames
Codec ID : V_MPEG4/ISO/AVC
Duration : 2h 24mn
Bit rate : 659 Kbps
Width : 672 pixels
Height : 288 pixels
Display aspect ratio : 2.35:1
Frame rate : 23.976 fps
Color space : YUV
Chroma subsampling : 4:2:0
Bit depth : 8 bits
Scan type : Progressive
Bits/(Pixel*Frame) : 0.142
Stream size : 666 MiB (89%)
Writing library : x264 core 125 r2200 999b753
Default : Yes
Forced : No

Audio
ID : 2
Format : AC-3
Format/Info : Audio Coding 3
Mode extension : CM (complete main)
Format settings, Endianness : Big
Codec ID : A_AC3
Duration : 2h 24mn
Bit rate mode : Constant
Bit rate : 64.0 Kbps
Channel(s) : 2 channels
Channel positions : Front: L R
Sampling rate : 48.0 KHz
Bit depth : 16 bits
Compression mode : Lossy
Stream size : 66.0 MiB (9%)
Default : Yes
Forced : No

Text
ID : 3
Format : UTF-8
Codec ID : S_TEXT/UTF8
Codec ID/Info : UTF-8 Plain Text
Default : Yes
Forced : No

SCREENS: 
http://imgh.us/5aY9hvOyNc.png 
http://imgh.us/XjnMvechrR.png 
http://imgh.us/2GKsawO7Zq.png 
http://imgh.us/wsZbAnVYxt.png